<?xml version="1.0" standalone="no"?>
<!DOCTYPE svg PUBLIC "-//W3C//DTD SVG 1.1//EN" "http://www.w3.org/Graphics/SVG/1.1/DTD/svg11.dtd">
<svg xmlns="http://www.w3.org/2000/svg">
<metadata>Copyright (C) 2017 by original authors @ fontello.com</metadata>
<defs>
<font id="fontello" horiz-adv-x="1000" >
<font-face font-family="fontello" font-weight="400" font-stretch="normal" units-per-em="1000" ascent="850" descent="-150" />
<missing-glyph horiz-adv-x="1000" />
<glyph glyph-name="calendar" unicode="&#xe800;" d="M81-66h837c18 0 32 14 32 32v710c0 17-14 31-32 31h-157v28c0 17-14 31-32 31-18 0-32-14-32-31v-28h-389v28c0 17-14 31-32 31-18 0-32-14-32-31v-28h-163c-17 0-31-14-31-31v-711c0-17 14-31 31-31z m32 710h131v-17c0-18 14-32 32-32 18 0 32 14 32 32v17h389v-17c0-18 14-32 32-32 18 0 32 14 32 32v17h126v-82h-774v82z m0-146h773v-501h-773v501z m616-146h-458c-17 0-31-14-31-31 0-18 14-32 31-32h458c18 0 32 14 32 32 0 17-14 31-32 31z m-229-153h-229c-17 0-31-14-31-32 0-18 14-32 31-32h229c18 0 32 14 32 32 0 18-14 32-32 32z" horiz-adv-x="1000" />

<glyph glyph-name="call" unicode="&#xe801;" d="M978 60l-155 154c-31 31-82 30-113-2l-78-78c-5 3-10 6-15 9-50 27-117 64-188 135-71 71-108 138-135 188-3 5-6 10-9 15l53 52 25 25c32 32 33 83 2 114l-154 155c-31 30-82 29-114-3l-43-43 1-2c-15-18-27-40-36-63-8-22-13-43-16-64-20-169 57-324 267-533 290-290 523-268 533-267 22 2 43 8 64 16 23 9 45 21 64 36l0-1 45 43c31 32 32 83 2 114z" horiz-adv-x="1000" />

<glyph glyph-name="facebook" unicode="&#xe802;" d="M264 317h109v-451c0-9 7-16 16-16h186c9 0 16 7 16 16v449h126c9 0 15 6 16 15l20 166c0 4-1 9-4 12-4 4-8 6-13 6h-145v104c0 31 17 47 51 47 4 0 94 0 94 0 9 0 17 7 17 16v153c0 9-8 16-17 16h-130c-1 0-3 0-6 0-23 0-102-4-164-62-69-63-60-139-57-152v-122h-115c-9 0-17-7-17-16v-164c0-9 8-17 17-17z" horiz-adv-x="1000" />

<glyph glyph-name="google-plus" unicode="&#xe803;" d="M976 415h-63v63c0 13-10 24-23 24h-85c-13 0-24-11-24-24v-63h-63c-13 0-24-10-24-23v-85c0-13 11-24 24-24h63v-63c0-13 11-24 24-24h85c13 0 23 11 23 24v63h63c13 0 24 11 24 24v85c0 13-11 23-24 23z m-652 104c28 0 56-7 80-22l27-19c9-6 22-5 30 3l79 78c5 5 7 12 7 19-1 7-5 14-10 18l-46 31c-1 1-2 1-3 2l-45 22c0 0-1 0-1 1-39 15-79 22-120 22-85 0-165-32-226-91-61-61-95-142-96-231-1-88 33-170 93-231 60-61 146-95 235-95 87 0 170 34 226 93 44 47 71 110 78 182 0 1 0 2 0 2l1 65c0 1 0 2 0 4l-4 22c-1 11-11 20-23 20h-275c-13 0-24-11-24-24v-95c0-13 11-24 24-24h140c-6-14-17-29-29-43-28-30-70-47-115-47-45 0-89 18-120 49-63 65-63 178 2 242 30 30 72 47 115 47z" horiz-adv-x="1000" />

<glyph glyph-name="instagram" unicode="&#xe804;" d="M724 850h-448c-152 0-276-124-276-276v-448c0-152 124-276 276-276h448c152 0 276 124 276 276v448c0 152-124 276-276 276z m187-724c0-103-84-187-187-187h-448c-103 0-187 84-187 187v448c0 103 84 187 187 187h448c103 0 187-84 187-187v-448z m-411 482c-142 0-258-116-258-258 0-142 116-258 258-258s258 116 258 258c0 142-116 258-258 258z m0-427c-93 0-169 76-169 169 0 93 76 169 169 169s169-76 169-169c0-93-76-169-169-169z m269 502c-18 0-34-7-46-19-13-12-20-29-20-46 0-17 7-34 20-46 12-12 28-19 46-19 17 0 33 7 46 19 12 12 19 29 19 46 0 17-7 34-19 46-13 12-29 19-46 19z" horiz-adv-x="1000" />

<glyph glyph-name="play" unicode="&#xe805;" d="M854 704c-95 94-220 146-354 146s-259-52-354-146c-94-95-146-220-146-354s52-259 146-354c95-94 220-146 354-146s259 52 354 146c94 95 146 220 146 354s-52 259-146 354z m-354-798c-245 0-444 199-444 444s199 444 444 444 444-199 444-444-199-444-444-444z m226 468l-317 203c-9 6-20 6-29 1-9-5-14-14-14-24v-407c0-10 5-20 14-25 4-2 9-3 14-3 5 0 10 1 15 4l317 204c8 5 13 14 13 23s-5 19-13 24z m-304-176v304l237-152-237-152z" horiz-adv-x="1000" />

<glyph glyph-name="searcher" unicode="&#xe806;" d="M976-7l-218 217c-1 1-2 2-3 3 42 65 67 142 67 226 0 227-184 411-411 411s-411-184-411-411c0-227 184-411 411-411 84 0 161 25 226 67 1-1 2-2 3-3l217-218c33-32 86-32 119 0 32 33 32 86 0 119z m-565 177c-148 0-268 121-268 269 0 148 120 269 268 269 149 0 269-121 269-269 0-148-120-269-269-269z" horiz-adv-x="1000" />

<glyph glyph-name="shopping-cart" unicode="&#xe807;" d="M300 50c-55 0-100-45-100-100s45-100 100-100 100 45 100 100-45 100-100 100z m-300 800v-100h100l180-380-70-120c-5-15-10-35-10-50 0-55 45-100 100-100h600v100h-580c-5 0-10 5-10 10v5l45 85h370c40 0 70 20 85 50l180 325c10 10 10 15 10 25 0 30-20 50-50 50h-740l-45 100h-165z m800-800c-55 0-100-45-100-100s45-100 100-100 100 45 100 100-45 100-100 100z" horiz-adv-x="1000" />

<glyph glyph-name="twitter" unicode="&#xe808;" d="M1000 660c-37-16-76-27-118-32 43 25 75 65 90 113-39-23-83-40-130-49-37 39-91 64-150 64-113 0-205-91-205-205 0-16 2-32 6-47-171 9-322 91-423 215-18-30-28-66-28-103 0-71 36-134 91-171-33 1-65 10-93 26 0-1 0-2 0-3 0-99 71-182 165-201-17-5-36-7-54-7-13 0-26 1-39 3 26-81 102-141 192-142-70-55-159-88-255-88-17 0-33 1-49 3 91-58 199-92 315-92 377 0 583 312 583 583 0 9 0 18 0 27 40 29 75 65 102 106z" horiz-adv-x="1000" />

<glyph glyph-name="up-arrow" unicode="&#xe809;" d="M841 524c14-14 14-37 0-51-13-13-36-13-50 0l-255 256v-844c0-19-16-35-36-35-19 0-35 16-35 35v844l-256-256c-14-13-36-13-50 0-14 14-14 37 0 51l316 316c14 13 36 13 50 0l316-316z" horiz-adv-x="1000" />

<glyph glyph-name="address" unicode="&#xe80a;" d="M251 308h-48c-11 0-20-9-20-20s9-20 20-20h48c11 0 20 9 20 20s-9 20-20 20z m633 176c54 85 82 149 82 189 0 98-80 177-177 177-88 0-161-64-175-148-46 16-93 24-142 24-117 0-227-46-310-128-82-83-128-193-128-310 0-117 46-227 128-310 83-82 193-128 310-128 117 0 227 46 310 128 82 83 128 193 128 310 0 62-13 121-37 177 3 6 7 12 11 19z m-95 326c75 0 137-61 137-137 0-59-88-192-137-259-49 67-138 200-138 259 0 76 62 137 138 137z m-177-149c5-40 32-100 81-177 40-63 78-113 80-115 4-5 10-8 16-8s12 3 16 8c1 1 18 24 41 57 14-38 22-78 24-118h-221c-2 106-18 206-47 283-13 35-29 64-46 86 19-4 38-9 56-16z m-140 25c63 0 133-154 137-378h-230c-11 0-20-9-20-20s9-20 20-20h230c-1-61-7-116-16-165-39 11-80 17-121 17-41 0-82-6-121-17-10 54-16 116-16 185 0 68 6 130 16 183 39-11 80-17 121-17 28 0 56 3 82 8 11 2 18 13 16 23-2 11-12 18-23 16-24-5-50-7-75-7-39 0-76 6-113 16 27 109 72 176 113 176z m-83-9c-18-22-33-51-47-86-8-21-14-44-20-67-40 16-76 38-109 66 50 42 110 73 176 87z m-314-409h60c11 0 20 9 20 20s-9 20-20 20h-60c4 98 45 187 109 254 39-33 82-60 129-78-12-60-18-127-18-196 0-70 6-138 18-198-46-18-90-44-128-78-64 68-106 157-110 256z m139-283c33 28 69 50 108 65 6-23 13-44 20-65 14-35 29-64 47-86-66 14-126 44-175 86z m258-95c-41 0-85 66-112 174 36 10 74 16 112 16 39 0 76-6 112-16-26-108-71-174-112-174z m84 9c17 22 33 51 46 86 8 21 14 42 20 65 39-15 75-37 108-65-49-42-109-72-174-86z m203 113c-38 34-82 60-128 78 11 55 17 115 18 178h221c-5-99-46-188-111-256z m138 661c0 60-49 108-108 108-60 0-109-48-109-108 0-60 49-108 109-108 59 0 108 48 108 108z m-177 0c0 38 31 68 69 68s68-30 68-68c0-38-31-69-68-69s-69 31-69 69z" horiz-adv-x="1000" />

<glyph glyph-name="mail" unicode="&#xe80b;" d="M500 552c111 0 202-91 202-202 0-16 13-29 29-29s29 13 29 29c0 144-116 260-260 260s-260-116-260-260 116-260 260-260c92 0 178 49 225 129 8 14 3 32-10 40-14 8-32 3-40-11-36-62-103-100-175-100-111 0-202 91-202 202s91 202 202 202z m499-163c-19 243-216 440-458 459-147 12-291-41-395-144-103-104-156-248-144-394 19-242 216-439 458-458 13-2 26-2 39-2 133 0 260 52 355 146 11 12 11 30 0 42s-30 11-42 0c-91-92-218-139-348-128-214 16-387 190-404 404-11 130 36 257 128 348 91 92 218 139 348 128 214-17 388-191 405-406 2-29 1-59-2-88-4-30-23-57-50-71-25-13-52-13-76 0-14 8-32 3-40-12-7-14-2-31 12-39 41-22 89-22 131-1 44 23 74 67 80 116 4 33 5 66 3 100z" horiz-adv-x="1000" />

<glyph glyph-name="telephone" unicode="&#xe80c;" d="M745 207c-19 20-42 30-66 30-24 0-47-10-67-30l-64-64c-6 3-11 6-17 9-7 3-14 7-20 11-59 37-113 86-165 150-25 32-42 60-54 87 17 15 32 31 47 47 6 5 11 11 17 17 20 20 31 43 31 67s-11 47-31 68l-55 54c-6 7-12 13-18 19-12 12-25 25-38 37-19 19-41 29-65 29-24 0-47-10-67-29 0 0 0 0 0 0l-69-69c-25-25-39-55-42-91-4-44 4-91 25-148 32-87 81-167 153-254 87-104 192-187 312-245 46-22 107-47 175-52 5 0 9 0 13 0 45 0 84 16 114 49 0 0 0 0 0 1 11 12 23 24 35 36 9 8 18 17 26 26 40 42 40 95 0 135l-110 110z m75-210c0 0 0 0 0 0-8-9-16-17-25-25-12-12-26-25-38-40-20-22-45-32-77-32-3 0-6 0-9 0-60 4-115 27-157 47-113 55-213 133-296 232-68 82-114 158-144 240-19 50-26 89-23 126 2 24 12 44 29 61l68 68c10 10 21 15 32 15 10 0 21-5 31-15 0 0 0 0 0-1 12-11 24-23 36-35 6-7 13-13 19-20l55-54c22-22 22-43 0-65-6-6-12-12-17-17-17-17-33-34-51-49 0 0 0-1-1-1-16-16-14-32-10-43 1-1 1-1 1-2 14-34 34-66 64-105l0 0c56-68 113-121 177-161 9-5 17-9 25-13 7-4 14-7 20-11 0-1 1-1 2-1 6-4 13-5 19-5 16 0 26 10 29 13l68 68c10 11 21 16 32 16 13 0 24-8 30-15 1 0 1 0 1-1l110-110c26-26 14-50 0-65z m-249 631c7 0 13 3 18 8s7 11 7 17-3 13-7 18-11 7-18 7-13-3-17-7-8-11-8-18 3-13 8-17c4-5 11-8 17-8z m82-27c9 0 18 5 23 13 6 13 1 27-11 34s-27 2-33-11-2-27 10-33c4-2 8-3 11-3z m88-44c10 9 10 25 0 35-10 10-25 10-35 0-10-10-10-26 0-35 5-5 11-8 18-8s12 3 17 8z m22-31c-12-6-16-21-10-33 4-9 13-14 22-14 4 0 8 1 11 3 13 6 17 21 11 34-6 12-21 17-34 10z m15-104c0-7 2-13 7-18s11-7 18-7 13 3 17 7 8 11 8 18-3 13-8 17-11 8-17 8-13-3-18-8c-5-4-7-10-7-17z m-233 44c17-3 33-12 46-24 13-13 21-29 24-47 2-12 13-20 25-20 1 0 2 0 4 0 13 2 22 15 20 29-5 27-18 53-38 73-20 20-45 33-73 38-13 2-26-7-29-21-2-13 7-26 21-28z m454-32c-18 104-67 199-142 274s-170 124-274 142c-13 2-26-7-28-21-3-13 6-26 20-28 94-16 179-60 247-128 68-68 112-153 128-247 2-12 13-21 24-21 2 0 3 0 5 1 13 2 22 14 20 28z" horiz-adv-x="1000" />

<glyph glyph-name="dumbbells" unicode="&#xe80d;" d="M210 500c0-12-10-22-23-22h-91c-12 0-22 10-22 22s10 22 22 22h91c13 0 23-10 23-22z m473-22h91c12 0 22 10 22 22s-10 22-22 22h-91c-13 0-23-10-23-22s10-22 23-22z m-458-90h-167c-5 0-11 2-15 6l-36 36c-5 4-7 10-7 16v286c0 6 2 11 7 16l36 36c4 4 10 6 15 6h167c6 0 11-2 16-6l36-36c4-5 6-10 6-16v-61h304v61c0 6 2 11 6 16l36 36c5 4 10 6 16 6h167c6 0 11-2 15-6l37-36c4-5 6-10 6-16v-286c0-6-2-12-6-16l-37-36c-4-4-9-6-15-6h-167c-6 0-11 2-16 6l-36 36c-4 4-6 10-6 16v61h-304v-61c0-6-2-12-6-16l-36-36c-5-4-10-6-16-6z m406 67l23-23h148l24 23v268l-24 23h-148l-23-23v-268z m-348 96h39v25c0 12 10 22 22 22s22-10 22-22v-25h34v25c0 12 10 22 22 22s22-10 22-22v-25h34v25c0 12 10 22 22 22 12 0 22-10 22-22v-25h65v76h-304v-76z m-67-119l23 23v268l-23 23h-148l-24-23v-268l24-23h148z m784-178v-286c0-6-2-11-6-16l-37-36c-4-4-9-6-15-6h-167c-6 0-11 2-15 6l-37 36c-4 5-6 10-6 16v61h-304v-61c0-6-2-11-6-16l-36-36c-5-4-10-6-16-6h-167c-5 0-11 2-15 6l-36 36c-5 5-7 10-7 16v286c0 6 2 12 7 16l36 36c4 4 10 6 15 6h167c6 0 11-2 16-6l36-36c4-4 6-10 6-16v-61h304v61c0 6 2 12 6 16l37 36c4 4 9 6 15 6h167c6 0 11-2 15-6l37-36c4-4 6-10 6-16z m-631-9l-23 23h-148l-24-23v-268l24-23h148l23 23v268z m348-96h-304v-75h39v24c0 13 10 22 22 22s22-9 22-22v-24h34v24c0 13 10 22 22 22s22-9 22-22v-24h34v24c0 13 10 22 22 22s22-9 22-22v-24h65v75z m239 96l-24 23h-148l-23-23v-268l23-23h148l24 23v268z m-52-201h-91c-13 0-23-10-23-22s10-22 23-22h91c12 0 22 10 22 22s-10 22-22 22z m-586 0h-92c-12 0-22-10-22-22s10-22 22-22h92c12 0 22 10 22 22s-10 22-22 22z" horiz-adv-x="1000" />

<glyph glyph-name="fitness-app" unicode="&#xe80e;" d="M799 546c12 0 22 10 22 23v84c0 15 9 28 21 34 10-20 30-33 53-33h46c33 0 59 26 59 59 0 32-26 58-59 58h-46c-25 0-47-16-55-38-36-9-63-41-63-80v-84c0-13 9-23 22-23z m96 181h46c8 0 15-6 15-14 0-8-7-15-15-15h-46c-8 0-14 7-14 15s6 14 14 14z m46-166h-46c-25 0-47-16-55-38-36-9-63-41-63-80v-432c0-21-17-38-38-38-21 0-38 17-38 38v603c0 45-36 81-81 81s-82-36-82-81v-339c0-21-17-38-38-38h-48v248c1 0 2 0 3 0 12 0 22 10 22 22v66c0 12-10 22-22 22-1 0-2 0-3 0v52c0 25-20 46-45 46h-361c-26 0-46-21-46-46v-670c0-25 20-46 46-46h361c25 0 45 21 45 46v216h48c45 0 82 36 82 82v339c0 20 17 37 38 37s37-17 37-37v-603c0-46 37-82 82-82 45 0 82 36 82 82v432c0 15 9 28 21 34 10-20 30-33 53-33h46c33 0 59 26 59 59 0 32-26 58-59 58z m-533-584c0-1-1-1-1-1h-361c-1 0-2 0-2 1v74h364v-74z m0 118h-364v292h62c8 0 16 4 20 11l40 71 97-177c4-7 12-12 20-12 8 1 16 5 19 13l46 94h60v-292z m0 336h-73c-9 0-17-5-20-13l-34-67-95 175c-4 7-12 11-20 11 0 0 0 0 0 0-8 0-15-4-19-11l-54-95h-49v216c0 1 1 1 2 1h361c0 0 1 0 1-1v-216z m533 57h-46c-8 0-14 7-14 15s6 14 14 14h46c8 0 15-6 15-14 0-8-7-15-15-15z" horiz-adv-x="1000" />

<glyph glyph-name="fitness-gloves" unicode="&#xe80f;" d="M412 169h-55v75h19c13 0 23 10 23 22s-10 23-23 23h-286l-44 417v96h50v-97c0-13 10-23 22-23s23 10 23 23v97h50v-97c0-13 10-23 23-23s23 10 23 23v97h50v-97c0-13 10-23 22-23s23 10 23 23v97h50v-97c0-13 10-23 23-23h42l-24-117c-3-12 5-24 18-27 12-2 24 6 27 18l36 181 49-8-16-85c-2-13 6-25 18-27 12-2 24 6 27 18l20 108c1 6 0 12-4 18-3 5-8 8-14 9l-95 16c-12 2-24-6-26-18l-7-40h-28v97c0 12-11 23-23 23h-382c-13 0-23-11-23-23v-120c0-1 0-2 0-3l47-437v-118c0-13 10-23 23-23h342c12 0 22 10 22 23s-10 22-22 22z m-210 0h-109v75h109v-75z m109 0h-63v75h63v-75z m666 407h-382c-12 0-23-10-23-22v-97h-28l-7 40c-2 12-14 20-26 18l-94-16c-7-1-12-5-15-10-4-5-5-11-4-17l90-479v-118c0-12 10-23 23-23h419c13 0 23 11 23 23v119l47 437c0 1 0 2 0 3v120c0 12-10 22-23 22z m-334-678h-109v74h109v-74z m109 0h-63v74h63v-74z m156 0h-110v74h110v-74z m46 537l-44-417h-380l-83 440 49 8 7-37c0 0 0 0 0 0l23-119c2-13 14-21 26-19 13 3 21 15 19 27l-18 93h42c13 0 23 10 23 23v97h50v-97c0-13 10-23 23-23s23 10 23 23v97h49v-97c0-13 11-23 23-23s23 10 23 23v97h50v-97c0-13 10-23 23-23s23 10 23 23v97h49v-96z m-233-201c-76 0-138-62-138-138 0-2 0-5 0-8 1-12 11-21 23-21h230c12 0 22 9 23 21 0 3 0 6 0 8 0 76-62 138-138 138z m-91-122c7 44 45 77 91 77 45 0 83-33 91-77h-182z m-442 272h162c13 0 23-11 23-23s-10-23-23-23h-186c-12 0-22 9-22 21-1 3-1 6-1 9 0 76 62 138 138 138 25 0 49-7 70-19 11-7 15-21 8-31-6-11-20-15-31-9-14 9-30 13-47 13-45 0-83-33-91-76z" horiz-adv-x="1000" />

<glyph glyph-name="push-up-grips" unicode="&#xe810;" d="M550 679c0-11-9-21-21-21h-166c-11 0-21 10-21 21s10 21 21 21h166c12 0 21-9 21-21z m447-780c-4-6-11-10-18-10h-296c-7 0-14 4-18 10-3 6-3 14 0 21l42 75c3 6 10 11 18 11h1v56c0 11 10 21 21 21h1v114c0 6-2 12-7 16-4 4-9 7-15 7v-1c0-12-9-21-21-21h-302c-12 0-21 9-21 21v1c-6 0-11-3-15-7-5-4-7-10-7-16v-114h1c11 0 21-10 21-21v-56h1c8 0 15-5 18-11l42-75c3-7 3-15 0-21-4-6-11-10-18-10h-296c-7 0-14 4-18 10-4 6-4 14 0 21l41 75c4 6 11 11 18 11h2v56c0 11 9 21 21 21h0v114c0 51 20 98 56 134 36 36 83 55 133 56v1c0 12 9 21 21 21h302c12 0 21-9 21-21v-1c50-1 97-20 133-56 36-36 56-83 56-134v-114h0c12 0 21-10 21-21v-56h2c7 0 14-5 18-11l41-75c4-7 4-15 0-21z m-783 107h126v35h-126v-35z m-31-43l-18-32h224l-18 32h-188z m199 382c-39-1-76-16-103-44-28-28-44-65-44-104v-114h83v114c0 17 7 34 19 46 12 12 28 19 45 19v83z m302 22h-260v-127h260v127z m87-124c12-12 19-29 19-46v-114h83v114c0 39-16 76-44 104-27 28-64 43-103 44v-83c17 0 33-7 45-19z m-3-202v-35h126v35h-126z m175-110l-18 32h-188l-18-32h224z m-776 360h-146c-7 0-14 4-18 10-4 7-4 15 0 21l41 75c4 7 11 11 19 11h1v56c0 11 9 21 21 21h1v114c0 51 19 98 55 134 36 36 83 56 133 56v1c0 12 9 21 21 21h302c12 0 21-9 21-21v-1c50 0 97-20 133-56 36-36 56-83 56-134v-114h0c12 0 21-10 21-21v-35c0-12-9-21-21-21s-21 9-21 21v14h-147c-11 0-21 9-21 21s10 21 21 21h1v114c0 6-2 12-7 16-4 5-9 7-15 7v-1c0-12-9-21-21-21h-302c-12 0-21 9-21 21v1c-6 0-11-2-15-7-4-4-7-10-7-16v-114h1c11 0 21-10 21-21v-25c0-11-10-21-21-21s-21 10-21 21v4h-126v-35h113c12 0 21-10 21-21s-9-21-21-21h-144l-18-33h110c11 0 21-9 21-21s-10-21-21-21z m451 373c17 0 33-7 45-19 12-12 19-28 19-46v-114h83v114c0 40-16 77-44 105-27 27-64 43-103 43v-83z m-302-22h260v127h-260v-127z m-188-157h82v114c0 18 7 34 19 46 12 12 28 19 45 19v83c-39 0-75-16-103-43-28-28-43-65-43-105v-114z m343-229h166c12 0 21 9 21 21 0 11-9 21-21 21h-166c-12 0-21-10-21-21 0-12 9-21 21-21z" horiz-adv-x="1000" />

<glyph glyph-name="chat" unicode="&#xe811;" d="M700 850h-400c-165 0-300-134-300-300v-233c0-160 126-291 283-300v-139c0-15 13-28 29-28 7 0 14 3 20 8l31 32c82 82 191 127 307 127h30c165 0 300 134 300 300v233c0 166-135 300-300 300z" horiz-adv-x="1000" />

<glyph glyph-name="clock" unicode="&#xe812;" d="M500 850c-276 0-500-224-500-500s224-500 500-500 500 224 500 500-224 500-500 500z m216-595h-212c0 0-1 0-2 0-1 0-1 0-2 0-19 0-35 15-35 35v353c0 19 16 34 35 34s35-15 35-34v-319h181c19 0 35-15 35-34 0-20-16-35-35-35z" horiz-adv-x="1000" />

<glyph glyph-name="tag" unicode="&#xe813;" d="M768 676c-15 27-47 42-84 42h-579c-58 0-105-47-105-105v-526c0-58 47-105 105-105h579c37 0 69 15 84 42l232 326-232 326z" horiz-adv-x="1000" />

<glyph glyph-name="money" unicode="&#xe814;" d="M787 821h-574c-58 0-104-47-104-104v-476l-66 66c-10 10-26 10-36 0s-9-25 0-35l109-109c5-5 11-7 18-7s13 2 18 7l108 109c10 10 10 25 0 35-9 10-25 10-35 0l-66-66v476c0 30 24 54 54 54h575c30 0 54-24 54-54v-70c0-13 11-25 25-25s25 12 25 25v70c0 57-47 104-105 104z m62-284l-109-109c-10-10-10-25 0-35 5-5 11-8 18-8s13 3 18 8l66 66v-476c0-30-25-54-55-54h-574c-30 0-54 24-54 54v70c0 14-12 25-26 25s-25-11-25-25v-70c0-57 47-104 105-104h574c58 0 104 47 104 104v476l66-66c10-10 26-10 36 0s9 25 0 35l-109 109c-9 9-26 9-35 0z m-349 34c-14 0-25-11-25-25v-38h-3c-48 0-87-41-87-92s39-91 87-91h56c20 0 37-18 37-41 0-23-17-41-37-41h-101c-14 0-25-11-25-25s11-25 25-25h48v-39c0-14 11-25 25-25s25 11 25 25v39h4c0 0 0 0 1 0 47 0 85 41 85 91 0 50-39 91-87 91h-56c-20 0-37 19-37 41s17 42 37 42h99c14 0 25 11 25 25s-11 25-25 25h-46v38c0 14-11 25-25 25z" horiz-adv-x="1000" />

<glyph glyph-name="shipping" unicode="&#xe815;" d="M960 614c0 4-1 8-3 11-3 8-10 13-17 14l-430 209c-7 3-15 3-22 0l-434-211c-8-4-14-12-14-22v0c0 0 0 0 0-1v-528c0-10 5-19 14-23l434-210c0 0 0 0 1-1 0 0 1 0 2 0 0 0 0-1 0-1 1 0 2 0 2 0 1 0 1 0 1 0 1-1 1-1 2-1 0 0 0 0 1 0 1 0 2 0 2 0 1 0 2 0 3 0 0 0 1 0 1 0 0 0 1 0 2 1 0 0 0 0 1 0 0 0 1 0 1 0 1 0 1 1 1 1 1 0 2 0 2 0 0 0 0 0 1 1l435 211c9 4 14 13 14 23v527c0 0 0 0 0 0z m-461 183l377-183-139-67-376 182 138 68z m0-365l-376 182 179 87 377-182-180-87z m-409 141l384-186v-471l-384 186v471z m435-657v471l180 88v-123c0-14 11-26 25-26s25 12 25 26v147l154 75v-471l-384-187z" horiz-adv-x="1000" />

<glyph glyph-name="support" unicode="&#xe816;" d="M842 470v38c0 92-32 178-91 241-61 65-144 101-235 101h-32c-90 0-174-36-234-101-59-63-92-149-92-241v-38c-71-5-128-65-128-138v-60c0-76 62-137 137-137h78c14 0 25 11 25 25v285c0 14-11 25-25 25h-36v38c0 166 118 292 275 292h32c157 0 275-126 275-292v-38h-36c-14 0-25-11-25-25v-285c0-14 11-25 25-25h35c-10-132-100-162-142-169-12 36-45 61-85 61h-63c-48 0-88-40-88-88s40-89 88-89h64c40 0 75 28 85 65 20 3 53 10 85 29 46 27 100 81 107 191 72 5 129 64 129 138v60c1 72-56 132-128 137z m-622-285h-52c-48 0-87 39-87 88v60c0 48 39 87 87 87h52v-235z m344-285h-64c-21 0-38 17-38 38s17 38 38 38h64c21 0 38-17 38-38s-17-38-38-38z m356 373c0-49-39-88-87-88h-52v235h52c48 0 87-39 87-87v-60z" horiz-adv-x="1000" />

<glyph glyph-name="del" unicode="&#xe817;" d="M644 334c-9 9-9 23 0 32l342 342c9 10 14 23 14 32s-5 23-14 32l-64 64c-9 9-22 14-32 14-13 0-22-5-32-14l-342-342c-9-9-23-9-32 0l-342 342c-10 9-23 14-32 14s-23-5-32-14l-64-64c-9-9-14-22-14-32s5-22 14-32l342-342c9-9 9-23 0-32l-342-342c-9-10-14-23-14-32s5-23 14-32l64-64c9-9 23-14 32-14s22 5 32 14l342 342c9 9 23 9 32 0l342-342c10-9 23-14 32-14s23 5 32 14l64 64c9 9 14 22 14 32s-5 22-14 32l-342 342z" horiz-adv-x="1000" />

<glyph glyph-name="ok-circled2" unicode="&#xe818;" d="M0 350q0 207 147 354t353 146 354-146 146-354-146-354-354-146-353 146-147 354z m109 0q0-162 115-276t276-115 276 115 115 276-115 276-276 115-276-115-115-276z m106-51l94 92 93-94 289 291 94-93-291-289-92-94-93 94z" horiz-adv-x="1000" />

<glyph glyph-name="ok" unicode="&#xe819;" d="M1179 778q-250-222-600-750l-115-179q-144 180-464 500l107 107 286-250q150 150 279 272t206 187 131 111 77 59l21 14q4 0 11-2t26-19 35-50z" horiz-adv-x="1179" />

<glyph glyph-name="check" unicode="&#xe81a;" d="M500 850a500 500 0 1 1 500-500 501 501 0 0 1-500 500z m0-918a418 418 0 1 0 418 418 419 419 0 0 0-418-418z m216 610l-297-297-135 136a41 41 0 1 1-58-58l164-165a41 41 0 0 1 58 0l326 326a41 41 0 1 1-58 58z" horiz-adv-x="1000" />
</font>
</defs>
</svg>
